<svg width="103" height="69" viewBox="0 0 103 69" fill="none" xmlns="http://www.w3.org/2000/svg">
<path fill-rule="evenodd" clip-rule="evenodd" d="M58.9992 56C56.5992 59.2 56.6658 66 56.9992 69H53.5C52.3333 63.5 49.1 51.8 45.5 49C43.25 47.25 38.75 44 34.25 40.75C29.75 37.5 25.25 34.25 23 32.5C18.5 29 3.5 14.5 0 10C4 11 22.5 18 31.5 24.5C38.7 29.7 46.1667 43 49 49L41 24.5L42 18C45.8333 28.3333 53.9 51.3 55.5 60.5C57 40 62.5 27 69.5 18C76.5 9 94.5 0 102.5 0C97.5 11.5 94 18 89 27C85.8652 32.6426 75.6411 41.3336 67.9213 47.8959L67.9212 47.896C63.6069 51.5634 60.0747 54.566 58.9992 56ZM31 33.5C28.2 31.1 22.8333 25.5 20.5 23C23.1667 24.6667 29 28.5 31 30.5C33 32.5 38.5 38.6667 41 41.5C38.8333 39.8333 33.8 35.9 31 33.5ZM64 44C66.3333 39.5 72.7418 27.728 76.5 23.5C80.5 19 87.5 12 92 9C91.5193 9.54084 90.9993 10.1235 90.4509 10.7382C86.4361 15.2376 80.8928 21.4501 78 25.5C75.5 29 68 39 64 44Z" fill="white"/>
<path d="M42 18C45.8333 28.3333 53.9 51.3 55.5 60.5C56 62 56 62 56.8704 64L56.8704 64C56.7736 65.9612 56.8647 67.7898 56.9992 69H53.5C53.2536 67.8386 52.9151 66.4007 52.5004 64.8284C52 60.5 50.5 54 49 49L41 24.5L42 18Z" fill="#EBB033"/>
</svg>
