<svg width="157" height="86" viewBox="0 0 157 86" fill="none" xmlns="http://www.w3.org/2000/svg">
<path d="M6.03601 36.2598H150.947L141.414 69.6417H15.5696L6.03601 36.2598Z" fill="white" stroke="#333333"/>
<path opacity="0.05" d="M6.03601 35.8711H150.947L148.564 44.0078H142.423L133.899 41.2956L16.6913 38.5833L10.8028 52.1446L8.41942 44.0078L6.03601 35.8711Z" fill="black"/>
<rect x="1" y="12.5117" width="154.247" height="24.1731" fill="#EBB033" stroke="#333333" stroke-width="0.5"/>
<rect opacity="0.05" x="1" y="12.5117" width="3.4533" height="24.1731" fill="black"/>
<path opacity="0.03" d="M88.9544 11.4609H107.94L102.128 36.2586H82.3676L88.9544 11.4609Z" fill="black"/>
<path opacity="0.03" d="M80.4299 11.4609H83.9171L78.1051 36.2586H73.843L80.4299 11.4609Z" fill="black"/>
<rect x="11.3599" y="1" width="133.528" height="11.511" fill="#FAFAFA" stroke="#333333" stroke-width="0.5"/>
<path opacity="0.1" d="M20.9196 23.8966C20.9196 26.0044 19.2109 27.7131 17.1031 27.7131C14.9953 27.7131 13.2866 26.0044 13.2866 23.8966C13.2866 21.7888 14.9953 20.0801 17.1031 20.0801C19.2109 20.0801 20.9196 21.7888 20.9196 23.8966Z" fill="black"/>
<path d="M20.144 23.1232C20.144 25.231 18.4353 26.9397 16.3275 26.9397C14.2197 26.9397 12.511 25.231 12.511 23.1232C12.511 21.0154 14.2197 19.3066 16.3275 19.3066C18.4353 19.3066 20.144 21.0154 20.144 23.1232Z" fill="white"/>
<rect x="1" y="68.9141" width="154.247" height="11.511" fill="#EBB033" stroke="#333333" stroke-width="0.5"/>
<circle opacity="0.1" cx="139.601" cy="23.8966" r="3.81651" fill="black"/>
<circle cx="138.827" cy="23.1232" r="3.81651" fill="white"/>
<path fill-rule="evenodd" clip-rule="evenodd" d="M54.9092 29.6237C58.0548 29.6237 60.6049 27.0736 60.6049 23.9279C60.6049 20.7823 58.0548 18.2322 54.9092 18.2322C51.7635 18.2322 49.2134 20.7823 49.2134 23.9279C49.2134 27.0736 51.7635 29.6237 54.9092 29.6237ZM54.9092 31.561C59.1248 31.561 62.5422 28.1436 62.5422 23.9279C62.5422 19.7123 59.1248 16.2949 54.9092 16.2949C50.6935 16.2949 47.2761 19.7123 47.2761 23.9279C47.2761 28.1436 50.6935 31.561 54.9092 31.561Z" fill="white"/>
<rect x="33.2308" y="17.248" width="4.77064" height="8.58716" fill="#FBFBFB"/>
<rect x="6.75549" y="80.4258" width="20.923" height="4.64956" fill="white" stroke="#333333" stroke-width="0.5"/>
<rect x="127.643" y="80.4258" width="20.923" height="4.64956" fill="white" stroke="#333333" stroke-width="0.5"/>
<rect x="75.8225" y="17.248" width="4.77064" height="8.58716" fill="#FBFBFB"/>
<rect x="118.412" y="17.248" width="4.77064" height="8.58716" fill="#FBFBFB"/>
<rect x="20.5687" y="36.6836" width="18.4176" height="8.0577" fill="white" stroke="#333333" stroke-width="0.5"/>
<rect x="70.066" y="36.6836" width="18.1284" height="8.0577" fill="white" stroke="#333333" stroke-width="0.5"/>
<rect x="118.412" y="36.6836" width="18.1284" height="8.0577" fill="white" stroke="#333333" stroke-width="0.5"/>
<path d="M22.8708 44.7422H36.684V48.6488C36.684 50.3056 35.3409 51.6488 33.684 51.6488H25.8708C24.214 51.6488 22.8708 50.3056 22.8708 48.6488V44.7422Z" fill="#FAFAFA" stroke="#333333" stroke-width="0.5"/>
<path d="M72.3682 44.7422H86.1814V48.6488C86.1814 50.3056 84.8382 51.6488 83.1814 51.6488H75.3682C73.7113 51.6488 72.3682 50.3056 72.3682 48.6488V44.7422Z" fill="#FAFAFA" stroke="black" stroke-width="0.5"/>
<path d="M120.714 44.7422H134.528V48.6488C134.528 50.3056 133.184 51.6488 131.528 51.6488H123.714C122.058 51.6488 120.714 50.3056 120.714 48.6488V44.7422Z" fill="#FAFAFA" stroke="black" stroke-width="0.5"/>
<path d="M10.8101 36.6836H15.789L7.91743 43.3625L4.45677 56.7726C4.25474 57.5554 3.49248 58.0579 2.69339 57.9349C1.78228 57.7948 1.18612 56.9051 1.40289 56.0091L4.57798 42.8854L10.8101 36.6836Z" fill="#EBB033" stroke="#333333" stroke-width="0.5" stroke-linejoin="round"/>
<path d="M147.19 36.334H142.211L150.083 43.0129L153.543 56.423C153.745 57.2058 154.508 57.7083 155.307 57.5853C156.218 57.4452 156.814 56.5555 156.597 55.6595L153.422 42.5358L147.19 36.334Z" fill="#EBB033" stroke="#333333" stroke-width="0.5" stroke-linejoin="round"/>
<path fill-rule="evenodd" clip-rule="evenodd" d="M54.4699 19.9861L54.4699 18.0488L55.6323 18.0488L55.6323 19.9861L54.4699 19.9861Z" fill="white"/>
<path fill-rule="evenodd" clip-rule="evenodd" d="M58.7314 23.4743L60.6687 23.4743L60.6687 24.6367L58.7314 24.6367L58.7314 23.4743Z" fill="white"/>
<path fill-rule="evenodd" clip-rule="evenodd" d="M54.4699 29.6736L54.4699 27.7363L55.6323 27.7363L55.6323 29.6736L54.4699 29.6736Z" fill="white"/>
<path fill-rule="evenodd" clip-rule="evenodd" d="M48.6585 23.4743L50.5958 23.4743L50.5958 24.6367L48.6585 24.6367L48.6585 23.4743Z" fill="white"/>
<path d="M27.1948 48.5164C27.3416 46.6082 29.1032 46.0516 30.0573 45.8926C31.9656 45.8926 33.3967 47.5623 33.1582 48.9935C32.9229 50.4052 31.0113 52.0944 31.0113 53.5256C31.0113 55.4487 31.7271 55.6724 31.25 58.2962C30.7729 60.9201 28.3875 61.6357 27.1948 61.1586C25.8621 60.6255 24.5168 59.5545 25.5252 56.8651C26.2407 54.9568 27.4334 55.1953 27.6719 52.81C27.9104 50.4247 27.0664 50.1862 27.1948 48.5164Z" fill="#EBB033" stroke="#333333" stroke-width="0.5"/>
<path d="M130.779 48.5164C130.632 46.6082 128.871 46.0516 127.917 45.8926C126.008 45.8926 124.577 47.5623 124.816 48.9935C125.051 50.4052 126.963 52.0944 126.963 53.5256C126.963 55.4487 126.247 55.6724 126.724 58.2962C127.201 60.9201 129.587 61.6357 130.779 61.1586C132.112 60.6255 133.457 59.5545 132.449 56.8651C131.733 54.9568 130.541 55.1953 130.302 52.81C130.064 50.4247 130.908 50.1862 130.779 48.5164Z" fill="#EBB033" stroke="#333333" stroke-width="0.5"/>
<path d="M82.142 48.755C81.9952 46.8467 80.2337 46.0516 79.2796 45.8926C77.3713 45.8926 75.9402 47.3844 75.9402 48.9935C75.9402 50.6632 76.8943 51.8559 76.8943 53.2871C76.8943 55.2102 75.7494 55.4339 75.9402 57.3421C76.1309 59.2504 77.1327 61.1586 78.8025 61.1586C80.4724 61.1586 82.142 59.7374 82.142 56.8651C82.142 55.4339 81.1877 54.9568 81.1879 53.0485C81.188 51.1403 82.2704 50.4247 82.142 48.755Z" fill="#EBB033" stroke="#333333" stroke-width="0.5"/>
</svg>
